<svg width="58" height="58" viewBox="0 0 58 58" fill="none" xmlns="http://www.w3.org/2000/svg">
<g clip-path="url(#clip0_82_6)">
<path d="M15.9297 48L15.7539 45.5391L19.1523 44.7188C19.1914 44.5625 19.2305 44.1328 19.2695 43.4297C19.3086 42.7266 19.3281 41.7695 19.3281 40.5586C19.3672 39.3477 19.3867 37.8828 19.3867 36.1641L19.4453 24.9727C19.4453 23.3711 19.4258 22.0039 19.3867 20.8711C19.3867 19.7383 19.3672 18.8398 19.3281 18.1758C19.2891 17.4727 19.25 17.0625 19.2109 16.9453L15.5781 16.0664L15.7539 13.6055H33.918C34.582 13.6055 35.2852 13.6055 36.0273 13.6055C36.8086 13.5664 37.6094 13.5273 38.4297 13.4883C39.25 13.4492 40.0312 13.4102 40.7734 13.3711L42.0625 21.3984L39.1914 21.8086L37.082 16.8281C36.7695 16.75 36.418 16.6914 36.0273 16.6523C35.6367 16.6133 35.2266 16.5938 34.7969 16.5938H28.9375C28.3125 16.5938 27.6484 16.6133 26.9453 16.6523C26.2812 16.6914 25.7344 16.75 25.3047 16.8281C25.3047 16.9844 25.2852 17.2578 25.2461 17.6484C25.2461 18 25.2461 18.4883 25.2461 19.1133C25.2461 19.7383 25.2461 20.4609 25.2461 21.2812C25.2461 22.1016 25.2461 23.0586 25.2461 24.1523L25.3047 37.1016C25.3047 38.5859 25.3047 39.875 25.3047 40.9688C25.3438 42.0625 25.3828 42.9219 25.4219 43.5469C25.4609 44.1719 25.5 44.5625 25.5391 44.7188L30.2852 45.4219L30.168 48H15.9297ZM34.9727 36.5742L34.2695 32.4141C33.957 32.3359 33.5469 32.2773 33.0391 32.2383C32.5312 32.1992 31.9453 32.1797 31.2812 32.1797H26.8867C26.3789 32.1797 25.8711 32.1992 25.3633 32.2383C24.8555 32.2383 24.3086 32.2578 23.7227 32.2969V28.8398C24.1914 28.8789 24.6797 28.918 25.1875 28.957C25.7344 28.9961 26.3008 29.0156 26.8867 29.0156H31.2812C32.0625 29.0156 32.707 28.9961 33.2148 28.957C33.7227 28.8789 34.0742 28.8203 34.2695 28.7812L34.9727 24.8555H37.7852V36.5742H34.9727Z" fill="white"/>
</g>
<defs>
<clipPath id="clip0_82_6">
<rect width="58" height="58" rx="10" fill="white"/>
</clipPath>
</defs>
</svg>
